<?xml version="1.0" encoding="utf-8"?>
<!-- Generator: Adobe Illustrator 19.2.1, SVG Export Plug-In . SVG Version: 6.00 Build 0)  -->
<svg version="1.1" id="layer" xmlns="http://www.w3.org/2000/svg" xmlns:xlink="http://www.w3.org/1999/xlink" x="0px" y="0px"
	 viewBox="0 0 652 652" style="enable-background:new 0 0 652 652;" xml:space="preserve">
<style type="text/css">
	.st0{fill:#00A7E4;}
	.st1{fill:#006499;}
</style>
<g>
	<path class="st0" d="M122.1,408.9c0.9,8-8.4,63.9,87.3,82.4c94.7,18.3,212.6-30,212.6-30h6.8c0,0-103.6,51.3-209.6,36.1
		c-106-15.2-100.7-76.1-101.1-88.5H122.1z"/>
	<path class="st0" d="M320,461.2c0,0-68.6,39.5-119.3,41.8c-50.7,2.3-94.5-15.6-81.3-94.1h-4c0,0-11.4,67.5,27.7,88.2
		c39.1,20.7,90.1,22.5,199.5-35.9H320z"/>
	<path class="st1" d="M76.8,294.7v38.1H32.5v-38.1H14.5v85.9h17.9v-40.1h44.3l0,30.8c0,1.9,0.4,3.5,1.1,4.8c0.8,1.2,1.7,2.1,2.9,2.8
		c1.1,0.6,2.3,1.1,3.6,1.3c1.3,0.2,2.4,0.3,3.4,0.3h6.9v-85.9H76.8z"/>
	<path class="st1" d="M427.5,380.6v-85.9H410l-35.1,63.6l-35.8-63.6h-17.8v85.9h9.2V314l37.7,66.6h4.7l36.7-66.1v56.8
		c0,1.9,0.4,3.5,1.2,4.8c0.7,1.2,1.7,2.1,2.8,2.8c1.1,0.7,2.4,1.1,3.7,1.3c1.3,0.2,2.4,0.3,3.5,0.3H427.5z"/>
	<path class="st1" d="M540.1,380.6l-44.9-87.8H490L444,380.6h10.5l14.3-27.3h32.6l-4.5-8.8h-23.5l15.1-28.9l29.6,58.1
		c1.2,2.4,2.6,4.1,4.3,5.2c1.7,1.1,4,1.6,6.7,1.6H540.1z"/>
	<path class="st1" d="M633.4,294.7c-0.5,0-1,0-1.7,0.1c-0.6,0.1-1.3,0.3-1.8,0.7c-0.6,0.4-1.1,0.9-1.5,1.5c-0.4,0.6-0.6,1.5-0.6,2.4
		v55.4l-59.7-60.1h-11.5v85.9h10.5v-64.8l60.6,62.6c2.5,2.3,5.9,2.1,9.2,2.1h1.2v-85.9H633.4z"/>
	<path class="st0" d="M444,198.1c-40.1-3.4-85.9,1.4-116.5,7.6c-37.3,7.6-72.1,18.1-104.9,32.5c-7.5,3.3-14.7,6.9-21.8,10.7
		c22.7-17.1,48.3-33.5,75.6-47.4c76.6-39,156.9-53.8,194.9-25.5c10.5,7.8,16.4,18,18.6,29.9C471.6,201,454.6,199,444,198.1
		 M186.7,260.2c0,0,20.9-11.9,36.6-18.5c38.6-16.4,72.6-26,103.9-31.9c25.3-4.8,102.3-16.8,163.4,2.4c1,14.2-2.9,30.6-10.7,48.1
		h25.1c6.2-12.9,10.4-25.4,12.3-37c9.5,5.1,18.2,11.4,25.7,18.9c7,7,13.7,18.1,13.7,18.1h11.1c0,0-4.7-10.7-15.2-21.3
		c-9.7-9.9-21.7-17.4-34.4-23.1c1.9-22.6-5.5-41.8-24.5-55c-45.4-31.7-135.4-13.5-218.4,31c-37.2,19.9-71,44.1-98.8,68.4H186.7z"/>
	<path class="st1" d="M162.8,292.8h-5.3l-46,87.8H122l34-64.9l14.7,28.9h-23.6l-4.6,8.8h32.7l10.3,20.5c1.2,2.4,2.6,4.1,4.3,5.2
		c1.7,1.1,4,1.6,6.7,1.6h11L162.8,292.8z"/>
	<path class="st1" d="M242.5,302.2v32.5h8.3c0,0,8.2,0.1,13.6-2.9c5.4-3.1,9.1-7.3,9.1-13.7s-4.1-12-9.9-14.3c0,0-3.3-1.6-9.2-1.6
		H242.5z M278.2,373.7l-26.5-32.4h-9.2v39.3h-17.9v-85.9h32.9c0,0,13.6-0.2,22.5,4.2c8.9,4.5,12.7,10.7,12.7,18.6
		c0,7.9-4.8,17.3-21.8,22l34.3,41h-13.7c0,0-2.9,0-6.3-1.1C281.8,378.3,278.2,373.7,278.2,373.7"/>
</g>
<path d="M256.5,412.5l-5.1,11.2h10.2L256.5,412.5z M268,433.4h-1.9l-3.8-8.2h-11.6l-3.8,8.2H245l11-23.9h1L268,433.4z"/>
<g>
	<path d="M485.7,413.3c-3-1.6-5.6-2.3-8.5-2.3c-5.9,0-10.4,4.5-10.4,10.5c0,6.1,4.4,10.5,10.6,10.5c2.7,0,5.2-0.7,8.5-2.4v1.9
		c-2.8,1.5-5.7,2.2-8.4,2.2c-7.2,0-12.6-5.2-12.6-12.2c0-7.3,6-12.2,12.5-12.2c2.6,0,5.5,0.7,8.4,2V413.3z"/>
	<path d="M502.9,411c-6,0-10.6,4.6-10.6,10.5c0,5.9,4.7,10.5,10.6,10.5c6,0,10.6-4.6,10.6-10.5C513.4,415.6,508.8,411,502.9,411
		 M502.8,433.7c-7,0-12.5-5.4-12.5-12.2c0-6.8,5.5-12.2,12.5-12.2c7.1,0,12.6,5.4,12.6,12.2C515.4,428.3,509.9,433.7,502.8,433.7"/>
</g>
<polygon points="541.6,409.6 543.4,409.6 543.4,433.4 541.6,433.4 541.6,412.3 541.5,412.3 532.5,423.4 523.5,412.3 523.4,412.3 
	523.4,433.4 521.6,433.4 521.6,409.6 523.4,409.6 532.5,420.7 "/>
<g>
	<path d="M552.4,420.7h4.4c4.4,0,6.1-2.1,6.1-4.8c0-2.6-1.7-4.8-5.9-4.8h-4.6V420.7z M557.1,409.6c5.6,0,7.8,2.9,7.8,6.3
		c0,3.1-1.8,6.4-7.9,6.4h-4.5v11.1h-1.8v-23.8H557.1z"/>
</g>
<path d="M575.9,412.5l-5.1,11.2H581L575.9,412.5z M587.4,433.4h-1.9l-3.8-8.2h-11.6l-3.8,8.2h-1.9l11-23.9h1L587.4,433.4z"/>
<polygon points="613.4,433.4 611.9,433.4 593.8,412.6 593.8,433.4 592,433.4 592,409.6 593.5,409.6 611.5,430.4 611.5,409.6 
	613.4,409.6 "/>
<polygon points="628.9,420.6 628.9,433.4 627.1,433.4 627.1,420.6 617.8,409.6 620.1,409.6 628,419 635.9,409.6 638.2,409.6 "/>
<g>
	<path d="M293.7,426.8c0.2,0.6,0.2,1.3,0,1.8c-0.2,0.8-0.7,1.6-2.3,1.6c-1.5,0-2.4-0.9-2.4-2.2l0-2.3h-6.4v1.8c0,5.4,4.2,7,8.7,7
		c4.3,0,7.9-1.5,8.5-5.5c0.3-2.1,0.1-3.4,0-3.9c-1-5-10.1-6.5-10.8-9.3c-0.1-0.5-0.1-1,0-1.3c0.2-0.8,0.7-1.6,2.2-1.6
		c1.4,0,2.2,0.9,2.2,2.2v1.5h6v-1.7c0-5.2-4.7-6-8.1-6c-4.3,0-7.7,1.4-8.4,5.3c-0.2,1.1-0.2,2,0.1,3.2
		C284,422.3,292.5,423.7,293.7,426.8"/>
	<path d="M371.6,426.8c0.2,0.6,0.1,1.3,0,1.8c-0.2,0.8-0.7,1.6-2.3,1.6c-1.5,0-2.4-0.8-2.4-2.1v-2.3h-6.4v1.8c0,5.3,4.2,6.9,8.6,6.9
		c4.3,0,7.8-1.5,8.4-5.4c0.3-2,0.1-3.4,0-3.9c-1-5-10-6.5-10.7-9.2c-0.1-0.5-0.1-1,0-1.2c0.2-0.8,0.7-1.6,2.2-1.6
		c1.4,0,2.2,0.8,2.2,2.2v1.5h5.9V415c0-5.2-4.6-6-8-6c-4.2,0-7.7,1.4-8.3,5.3c-0.2,1.1-0.2,2,0.1,3.2
		C362,422.3,370.4,423.7,371.6,426.8"/>
</g>
<polygon points="421.4,428.9 421,409.6 426.9,409.6 426.9,433.3 418.4,433.3 412.4,413.4 412.7,433.3 406.8,433.3 406.8,409.6 
	415.7,409.6 "/>
<polygon points="313.6,411.4 310.3,433.6 303.8,433.6 308.2,409.6 318.9,409.6 323.3,433.6 316.9,433.6 "/>
<polygon points="348.6,411.4 344.5,433.6 338.4,433.6 334.3,411.4 334.1,433.6 328.1,433.6 328.6,409.6 338.4,409.6 341.4,428.4 
	344.5,409.6 354.2,409.6 354.8,433.6 348.7,433.6 "/>
<g>
	<path d="M391.7,430c1.7,0,2.2-1.2,2.3-1.7c0.1-0.3,0.1-0.6,0.1-0.9v-17.7h6.1v17.2c0,0.4,0,1.3,0,1.6c-0.4,4.5-4,5.9-8.4,5.9
		c-4.4,0-7.9-1.4-8.4-5.9c0-0.3-0.1-1.1-0.1-1.6v-17.2h6.1v17.7c0,0.3,0,0.7,0.1,0.9C389.6,428.9,390.1,430,391.7,430"/>
	<path d="M441.7,429.8c1.8,0,2.4-1.1,2.5-1.8c0.1-0.3,0.1-0.6,0.1-0.9v-3.5h-2.5v-3.5h8.5v6.4c0,0.4,0,0.8-0.1,1.6
		c-0.4,4.4-4.2,5.9-8.4,5.9c-4.2,0-8-1.6-8.4-5.9c-0.1-0.8-0.1-1.1-0.1-1.6v-10.1c0-0.4,0.1-1.2,0.1-1.6c0.5-4.5,4.2-5.9,8.4-5.9
		c4.3,0,8,1.4,8.4,5.9c0.1,0.8,0,1.6,0,1.6v0.8h-6v-1.3c0,0,0-0.6-0.1-0.9c-0.1-0.5-0.6-1.7-2.4-1.7c-1.7,0-2.3,1.2-2.4,1.7
		c-0.1,0.3-0.1,0.7-0.1,1.1v10.9c0,0.3,0,0.6,0.1,0.9C439.4,428.7,440,429.8,441.7,429.8"/>
</g>
</svg>
